<?xml version="1.0" encoding="utf-8" standalone="no"?>
<svg width="250px" height="90px" version="1.1" baseProfile="full" xmlns="http://www.w3.org/2000/svg" xmlns:xlink="http://www.w3.org/1999/xlink" xmlns:ev="http://www.w3.org/2001/xml-events">
<path d="M115.9,18.1h-1.4V7.8h-3.9V6.5h9.2v1.3h-3.9V18.1z"/>
<path d="M123,11.5h6.1v-5h1.4v11.6h-1.4v-5.3H123v5.3h-1.4V6.5h1.4V11.5z"/>
<path d="M134.9,16.8h5.9v1.3h-7.4V6.5h7v1.3h-5.6v3.7h5v1.3h-5V16.8z"/>
<path d="M8,31.3h4.6v18.4c0,0.8-0.1,1.5-0.2,2.1c-0.1,0.6-0.3,1.1-0.5,1.6c-0.3,0.6-0.7,1.1-1.2,1.5 c-0.5,0.4-1,0.8-1.6,1c-0.6,0.3-1.2,0.5-1.9,0.6c-0.7,0.1-1.4,0.2-2.1,0.2c-0.8,0-1.5-0.1-2.2-0.2c-0.7-0.1-1.3-0.3-1.8-0.5V52 c0.5,0.2,1.1,0.4,1.7,0.5c0.6,0.1,1.2,0.2,1.8,0.2c1.2,0,2-0.3,2.6-0.8C7.8,51.4,8,50.6,8,49.5V31.3z"/>
<path d="M44.4,43.7c0,1.9-0.3,3.6-0.8,5.2c-0.5,1.6-1.3,2.9-2.4,4.1c-1,1.1-2.3,2-3.8,2.7 c-1.5,0.6-3.2,0.9-5.1,0.9s-3.6-0.3-5.1-0.9c-1.5-0.6-2.8-1.5-3.8-2.7c-1-1.1-1.8-2.5-2.4-4.1c-0.5-1.6-0.8-3.3-0.8-5.2 c0-1.9,0.3-3.6,0.8-5.2c0.5-1.6,1.3-2.9,2.4-4.1c1-1.1,2.3-2,3.8-2.7c1.5-0.6,3.2-0.9,5.1-0.9s3.6,0.3,5.1,0.9 c1.5,0.6,2.8,1.5,3.8,2.7c1,1.1,1.8,2.5,2.4,4.1C44.1,40.1,44.4,41.8,44.4,43.7z M39.7,43.7c0-1.5-0.2-2.8-0.6-4 c-0.4-1.1-0.9-2.1-1.5-2.8c-0.7-0.8-1.4-1.3-2.3-1.7c-0.9-0.4-1.9-0.6-3-0.6c-1.1,0-2.1,0.2-3,0.6c-0.9,0.4-1.7,0.9-2.3,1.7 s-1.2,1.7-1.5,2.8c-0.4,1.1-0.6,2.5-0.6,4s0.2,2.8,0.6,4c0.4,1.1,0.9,2.1,1.5,2.8s1.4,1.3,2.3,1.7c0.9,0.4,1.9,0.6,3,0.6 c1.1,0,2.1-0.2,3-0.6c0.9-0.4,1.7-0.9,2.3-1.7c0.7-0.7,1.2-1.7,1.5-2.8C39.5,46.5,39.7,45.2,39.7,43.7z"/>
<path d="M56.6,31.3v21h11.6v3.8H52.1V31.3H56.6z"/>
<path d="M79.9,31.3v21h11.6v3.8H75.4V31.3H79.9z"/>
<path d="M102.8,42l6.6-10.7h5.1L105,46.1v10h-4.6v-10l-9.4-14.8h5.1L102.8,42L102.8,42z"/>
<path d="M144.1,49.5c0.5-2,1.2-4.1,2-6.3l4.3-11.9h6.4v24.9h-4.6V43.5c0-1.8,0.1-4,0.2-6.4h-0.2 c-0.2,0.7-0.5,1.5-0.7,2.4c-0.3,0.9-0.6,1.7-0.9,2.6l-5.1,14h-2.9l-5.1-14c-0.3-0.9-0.6-1.7-0.9-2.6c-0.3-0.9-0.5-1.7-0.7-2.4h-0.2 c0.1,2.3,0.2,4.4,0.2,6.4v12.6h-4.6V31.3h6.4l4.3,11.8c0.7,2,1.4,4.1,2,6.4H144.1z"/>
<path d="M188.7,43.7c0,1.9-0.3,3.6-0.8,5.2c-0.5,1.6-1.3,2.9-2.4,4.1c-1,1.1-2.3,2-3.8,2.7 c-1.5,0.6-3.2,0.9-5.1,0.9c-1.9,0-3.6-0.3-5.1-0.9c-1.5-0.6-2.8-1.5-3.8-2.7c-1-1.1-1.8-2.5-2.4-4.1c-0.5-1.6-0.8-3.3-0.8-5.2 c0-1.9,0.3-3.6,0.8-5.2c0.5-1.6,1.3-2.9,2.4-4.1c1-1.1,2.3-2,3.8-2.7c1.5-0.6,3.2-0.9,5.1-0.9c1.9,0,3.6,0.3,5.1,0.9 c1.5,0.6,2.8,1.5,3.8,2.7c1,1.1,1.8,2.5,2.4,4.1C188.4,40.1,188.7,41.8,188.7,43.7z M184,43.7c0-1.5-0.2-2.8-0.6-4 c-0.4-1.1-0.9-2.1-1.5-2.8c-0.7-0.8-1.4-1.3-2.3-1.7c-0.9-0.4-1.9-0.6-3-0.6c-1.1,0-2.1,0.2-3,0.6c-0.9,0.4-1.7,0.9-2.3,1.7 s-1.2,1.7-1.5,2.8c-0.4,1.1-0.6,2.5-0.6,4s0.2,2.8,0.6,4c0.4,1.1,0.9,2.1,1.5,2.8s1.4,1.3,2.3,1.7c0.9,0.4,1.9,0.6,3,0.6 c1.1,0,2.1-0.2,3-0.6c0.9-0.4,1.7-0.9,2.3-1.7c0.7-0.7,1.2-1.7,1.5-2.8C183.8,46.5,184,45.2,184,43.7z"/>
<path d="M219.5,43.7c0,1.9-0.3,3.6-0.8,5.2c-0.5,1.6-1.3,2.9-2.4,4.1c-1,1.1-2.3,2-3.8,2.7 c-1.5,0.6-3.2,0.9-5.1,0.9c-1.9,0-3.6-0.3-5.1-0.9c-1.5-0.6-2.8-1.5-3.8-2.7c-1-1.1-1.8-2.5-2.4-4.1c-0.5-1.6-0.8-3.3-0.8-5.2 c0-1.9,0.3-3.6,0.8-5.2c0.5-1.6,1.3-2.9,2.4-4.1c1-1.1,2.3-2,3.8-2.7c1.5-0.6,3.2-0.9,5.1-0.9c1.9,0,3.6,0.3,5.1,0.9 c1.5,0.6,2.8,1.5,3.8,2.7c1,1.1,1.8,2.5,2.4,4.1C219.2,40.1,219.5,41.8,219.5,43.7z M214.8,43.7c0-1.5-0.2-2.8-0.6-4 c-0.4-1.1-0.9-2.1-1.5-2.8c-0.7-0.8-1.4-1.3-2.3-1.7c-0.9-0.4-1.9-0.6-3-0.6c-1.1,0-2.1,0.2-3,0.6c-0.9,0.4-1.7,0.9-2.3,1.7 s-1.2,1.7-1.5,2.8c-0.4,1.1-0.6,2.5-0.6,4s0.2,2.8,0.6,4c0.4,1.1,0.9,2.1,1.5,2.8s1.4,1.3,2.3,1.7c0.9,0.4,1.9,0.6,3,0.6 c1.1,0,2.1-0.2,3-0.6c0.9-0.4,1.7-0.9,2.3-1.7c0.7-0.7,1.2-1.7,1.5-2.8C214.6,46.5,214.8,45.2,214.8,43.7z"/>
<path d="M240.1,42.8c1.8,2.5,3.2,4.8,4.3,6.8h0.1c-0.1-3.2-0.2-5.6-0.2-7.1V31.3h4.6v24.9h-4.8 L236,44.7c-1.4-2-2.9-4.3-4.4-6.9h-0.1c0.1,3,0.2,5.4,0.2,7.1v11.3h-4.6V31.3h4.8L240.1,42.8z"/>
<path d="M85.7,76.6c0,0.3-0.2,0.5-0.4,0.5H76c-0.2,0-0.4-0.2-0.4-0.5c0-0.3,0.2-0.5,0.4-0.5h9.2 C85.5,76.1,85.7,76.3,85.7,76.6z"/>
<path d="M102.3,83.5c-1.9,0-3.4-1.5-3.4-3.3c0.1-2.1,1.3-3.4,3.1-3.4c1.2,0,2.1,1.1,2.2,2.3c0,0.3-0.2,0.5-0.5,0.5 c-0.3,0-0.5-0.2-0.5-0.5c0-0.8-0.6-1.3-1.2-1.3c-1.3,0-2.1,1.1-2.2,2.4c0,1.4,1.2,2.4,2.5,2.4c1.8,0,3.2-1.2,3.2-3.1 c0-1-0.4-1.7-1.6-3.8c-0.2,0.2-0.3,0.3-0.5,0.5c-0.1,0.1-0.2,0.2-0.4,0.2c-0.1,0-0.3,0-0.3-0.1c-0.1-0.1-0.2-0.3-0.2-0.4 c0-0.1,0-0.2,0.1-0.3c0.3-0.3,0.5-0.6,0.8-0.8c-0.2-0.5-0.3-1-0.3-1.5c0-1.2,0.7-2.2,1.7-2.2c0.7,0,1.1,0.5,1.1,1.2 c0,0.9-0.6,1.9-1.3,2.7c1.2,2.2,1.8,3,1.8,4.5C106.4,81.9,104.6,83.5,102.3,83.5z M104.9,72.2c0-0.3-0.3-0.3-0.5,0 c-0.3,0.3-0.3,0.7-0.3,1c0,0.3,0,0.5,0.1,0.7C104.6,73.4,104.9,72.7,104.9,72.2z"/>
<path d="M115.5,78.5c0,0.1,0,0.1,0,0.2c-1.3,2.9-2.6,4.8-4.7,4.8c-1.1,0-1.7-0.8-1.7-1.9c0-0.8,0.6-2.8,1.3-4.7 l1.2-3.3h-1.4c-0.3,0-0.5-0.2-0.5-0.5c0-0.3,0.2-0.5,0.5-0.5h1.8c0-0.1,1.2-3.3,1.2-3.4c0.1-0.2,0.3-0.3,0.5-0.3 c0.3,0,0.6,0.3,0.5,0.6c0.1-0.1-0.9,2.6-1.1,3.1h1.5c0.3,0,0.5,0.2,0.5,0.5c0,0.3-0.2,0.5-0.5,0.5h-1.9c-0.1,0.4-0.5,1.5-1.3,3.6 c-0.9,2.6-1.2,3.7-1.2,4.4c0,0.6,0.3,1,0.7,1c1.6,0,2.7-1.9,3.8-4.2c0.1-0.2,0.3-0.3,0.5-0.3c0.1,0,0.1,0,0.2,0 C115.4,78.2,115.5,78.3,115.5,78.5z"/>
<path d="M126.4,78.5c0,0.1,0,0.1,0,0.2c-1.5,3.4-2.6,4.8-4.2,4.8c-1,0-1.5-0.6-1.6-1.6c-0.7,0.9-1.7,1.6-2.7,1.6h0 c-1.4,0-2.2-0.8-2.2-2.4c0-1.1,0.5-2.5,2.7-8.2c0.1-0.2,0.3-0.3,0.4-0.3c0.4,0,0.6,0.3,0.5,0.6c-2.4,6.4-2.7,6.9-2.7,7.8 c0,0.9,0.4,1.4,1.3,1.4c0.9,0,1.9-0.8,2.6-2.3c0.8-1.6,1.6-4,2.8-7.3c0.1-0.2,0.3-0.3,0.4-0.3c0.4,0,0.6,0.3,0.5,0.6 c-0.5,1.3-0.9,2.6-1.3,3.5c-0.9,2.4-1.4,4.2-1.4,4.8c0,0.7,0.2,1,0.7,1c1.1,0,2-1.3,3.3-4.2c0.1-0.2,0.3-0.3,0.4-0.3 c0.1,0,0.1,0,0.2,0C126.3,78.2,126.4,78.3,126.4,78.5z"/>
<path d="M137.9,78.5c0,0.1,0,0.1,0,0.2c-1.3,2.9-2.6,4.8-4.7,4.8c-1.1,0-1.7-0.7-1.7-2c-0.8,1.1-1.7,2-2.9,2 c-1.3,0-1.9-1.1-1.9-2.5c0-3,2.3-8.3,5-8.3c1,0,1.7,0.5,2.1,1.2l0.4-1.2l1.2-3.5c0.1-0.2,0.3-0.3,0.4-0.3c0.4,0,0.5,0.4,0.5,0.6 c-0.2,0.7-2.9,8.4-3.2,9.1c-0.3,1.1-0.8,2.4-0.8,3c0,0.5,0.2,1,0.7,1c1.6,0,2.7-1.9,3.8-4.2c0.1-0.2,0.3-0.3,0.5-0.3 c0,0,0.1,0,0.2,0C137.8,78.2,137.9,78.3,137.9,78.5z M132.6,76.8c0.2-0.5,0.4-0.9,0.5-1.3c0-0.1,0-0.1,0-0.2c0-1.1-0.6-1.7-1.5-1.7 c-2.1,0.1-4,5-4.1,7.2c0,1,0.2,1.7,0.9,1.7C130.4,82.6,131.7,79.1,132.6,76.8z"/>
<path d="M143.8,78.5c0,0.1,0,0.1,0,0.2c-1.1,2.5-2.3,4.8-4.2,4.8c-1.1,0-1.7-0.9-1.6-1.9c0.1-1.8,1.7-6,2.7-8.6 c0.1-0.2,0.3-0.3,0.4-0.3c0.3,0,0.6,0.2,0.5,0.6c-2.2,6.2-2.6,7.3-2.6,8.3c0,0.7,0.2,1,0.7,1c1.4,0,2.5-2.4,3.3-4.2 c0.1-0.2,0.3-0.3,0.5-0.3c0.1,0,0.1,0,0.2,0C143.7,78.1,143.8,78.3,143.8,78.5z M141.2,70.8c0-0.4,0.4-0.8,0.8-0.8 c0.4,0,0.8,0.3,0.8,0.8s-0.3,0.8-0.8,0.8C141.6,71.5,141.2,71.2,141.2,70.8z"/>
<path d="M150.9,82.1c-0.6,0-1.2-0.2-1.7-0.6c-0.8,1.1-2,2.1-3.1,2.1c-1.5,0-2-1-2-2.3c0-2.6,1.2-4.9,1.9-6.1 c1-1.6,2.1-2.4,3.2-2.4c1.5,0,2.3,1.1,2.3,2.4c0,1.4-0.7,3.7-1.8,5.5c0.3,0.3,0.6,0.5,1.2,0.5c1,0,1.8-0.9,2.6-2.8 c0.1-0.2,0.3-0.3,0.4-0.3c0.3,0,0.6,0.3,0.5,0.7C153.4,81,152.3,82.1,150.9,82.1z M149.6,78.6c-0.1,0.2-0.1,0.4-0.1,0.5 c0.7-1.4,1.1-3,1.1-4c0-1-0.6-1.5-1.3-1.5c-0.9,0-1.7,0.8-2.4,1.9c-0.6,1-1.8,3.2-1.8,5.5c0,0.8,0.3,1.4,1,1.4c0.8,0,1.8-0.9,2.6-2 c-0.3-0.6-0.2-1.6,0-2.2c0-0.2,0.3-0.4,0.5-0.4C149.4,78,149.6,78.3,149.6,78.6z"/>
<path d="M174.1,76.6c0,0.3-0.2,0.5-0.4,0.5h-9.2c-0.2,0-0.4-0.2-0.4-0.5c0-0.3,0.2-0.5,0.4-0.5h9.2 C173.9,76.1,174.1,76.3,174.1,76.6z"/>
</svg>
